<svg xmlns="http://www.w3.org/2000/svg" viewBox="157 162 3599 993"><g fill="#2f3193"><path d="m2899.821 166.682 2.01 1.796c3.5 15.376 1.25 154.516-.247 174.01a249.94 249.94 0 0 1 185.878 32.634 270.77 270.77 0 0 1 118.311 169.825c9.888 45.215 5.736 146.571 5.909 198.134.16 47.458 2.828 149.885-4.784 191.807a268.2 268.2 0 0 1-38.82 96.52c-35.594 55.221-93.658 98.288-158.244 112.22-17.16 4.211-31.38 5.376-49.154 5.589a246.86 246.86 0 0 1-178.372-71.044c-84.361-83.346-82.91-164.555-82.83-273.316l.112-133.751-.226-503.466c66.602-1.358 133.583.665 200.457-.958m69.197 769.31c15.078-6.965 29.424-16.779 35.626-32.92 8.697-22.648 10.041-303.642.067-322.89a57.12 57.12 0 0 0-36.751-29.254c-7.253-1.896-13.255-2.036-20.582-1.264-17.44 5.801-31.028 13.652-39.659 30.658-4.092 8.064-4.571 18.376-5.157 27.298-2.515 38.303-4.524 273.19 4.465 296.384 4.785 12.328 16.356 23.34 28.474 28.29 11.212 4.577 21.719 4.178 33.517 3.699"/></g></svg>